<svg width="172" height="157" viewBox="0 0 172 157" fill="none" xmlns="http://www.w3.org/2000/svg">
<path d="M86.8214 75.9174C96.3665 72.1018 93.503 58.747 86.8214 53.0235C76.3217 44.4383 61.0495 49.2079 54.3679 60.6548C40.0502 83.5487 62.9585 108.35 86.8214 107.397C112.593 105.489 127.866 79.7331 122.138 55.8852C115.457 27.2679 84.9124 12.9592 58.186 21.5444C33.3686 29.1757 18.0963 54.9313 20.0054 80.687C22.8689 109.304 44.8228 132.198 72.5037 136.968C99.2301 141.737 126.911 129.337 141.229 106.443C147.91 95.9496 152.683 83.5487 152.683 70.1939C152.683 65.4244 157.455 60.6548 163.183 61.6087C170.819 61.6087 172.728 69.24 171.773 74.9635C167.955 119.797 128.82 157 83.0033 157C26.687 157 -17.2207 97.8574 6.64217 44.4383C30.505 -7.07299 104.957 -17.566 133.593 32.9913C147.91 56.8392 145.047 88.3183 125.002 108.35C105.912 127.429 74.4127 131.244 51.5044 115.028C30.505 99.7652 23.8234 68.2861 41.0047 46.3461C57.2314 24.4061 93.503 23.4522 107.821 48.2539C118.32 66.3783 107.821 97.8574 83.9579 94.9957C68.6856 94.9957 55.3224 78.7792 63.9131 64.4705C69.6401 55.8853 82.0488 58.747 85.8669 65.4244C87.7759 73.0557 86.8214 75.9174 86.8214 75.9174V75.9174Z" fill="#1F50FF" fill-opacity="0.98"/>
</svg>
